<?xml version="1.0" encoding="utf-8"?>
<!-- Generator: Adobe Illustrator 21.1.0, SVG Export Plug-In . SVG Version: 6.00 Build 0)  -->
<svg version="1.0" id="Layer_1" xmlns="http://www.w3.org/2000/svg" xmlns:xlink="http://www.w3.org/1999/xlink" x="0px" y="0px"
	 viewBox="0 0 100 100" enable-background="new 0 0 100 100" xml:space="preserve">
<filter  filterUnits="objectBoundingBox" height="102.4%" id="filter-5" width="102.3%" x="-1.1%" y="-1.2%">
	<feGaussianBlur  in="SourceAlpha" result="shadowBlurInner1" stdDeviation="0.5"></feGaussianBlur>
	<feOffset  dx="0" dy="-1" in="shadowBlurInner1" result="shadowOffsetInner1"></feOffset>
	<feComposite  in="shadowOffsetInner1" in2="SourceAlpha" k2="-1" k3="1" operator="arithmetic" result="shadowInnerInner1">
		</feComposite>
	
		<feColorMatrix  in="shadowInnerInner1" type="matrix" values="0 0 0 0 0.0196306507   0 0 0 0 0.0905025047   0 0 0 0 0.211575255  0 0 0 0.1 0">
		</feColorMatrix>
</filter>
<title>zalo</title>
<desc>Created with Sketch.</desc>
<g id="Page-1">
	<g id="Share" transform="translate(-397.000000, -906.000000)">
		<g id="zalo" transform="translate(397.000000, 906.000000)">
			<g id="Mask">
				<circle id="path-1_1_" fill="#2D93E2" cx="50" cy="50" r="50"/>
			</g>
			<defs>
				<filter id="Adobe_OpacityMaskFilter" filterUnits="userSpaceOnUse" x="16" y="-5" width="90" height="86">
					<feColorMatrix  type="matrix" values="1 0 0 0 0  0 1 0 0 0  0 0 1 0 0  0 0 0 1 0"/>
				</filter>
			</defs>
			<mask maskUnits="userSpaceOnUse" x="16" y="-5" width="90" height="86" id="mask-2">
				<g filter="url(#Adobe_OpacityMaskFilter)">
					<circle id="path-1" fill="#FFFFFF" cx="50" cy="50" r="50"/>
				</g>
			</mask>
			<g id="Group-20" mask="url(#mask-2)">
				<g transform="translate(17.000000, -4.000000)">
					<g id="Combined-Shape">
						<g>
							
								<linearGradient id="path-4_2_" gradientUnits="userSpaceOnUse" x1="-78.7841" y1="223.0407" x2="-78.7841" y2="222.7433" gradientTransform="matrix(88 0 0 -84 6977 18794.4395)">
								<stop  offset="0" style="stop-color:#FFFFFF"/>
								<stop  offset="1" style="stop-color:#EBF5F9"/>
							</linearGradient>
							<path id="path-4" fill="url(#path-4_2_)" d="M24.7,79.6L8.8,84l2.8-13.8C4.4,62.8,0,52.8,0,41.9C0,18.8,19.7,0,44,0
								s44,18.8,44,41.9S68.3,83.8,44,83.8C37.1,83.8,30.5,82.3,24.7,79.6z"/>
						</g>
						<g filter="url(#filter-5)">
							<path id="path-4_3_" d="M24.7,79.6L8.8,84l2.8-13.8C4.4,62.8,0,52.8,0,41.9C0,18.8,19.7,0,44,0s44,18.8,44,41.9
								S68.3,83.8,44,83.8C37.1,83.8,30.5,82.3,24.7,79.6z"/>
						</g>
					</g>
					<g id="Group-19" transform="translate(12.000000, 31.000000)">
						<path id="Fill-7" fill="#2D93E2" d="M6.4,18c2.9,0,5.5,0,8.2,0c1.5,0,2.3,0.6,2.5,1.8c0.2,1.5-0.7,2.5-2.3,2.5
							c-3.1,0-6.1,0-9.2,0c-0.9,0-1.8,0-2.7,0c-1.1-0.1-2.2-0.3-2.7-1.4c-0.5-1.1-0.2-2.1,0.6-3.1c2.9-3.7,5.9-7.4,8.8-11.1
							c0.2-0.2,0.3-0.4,0.5-0.7C9.9,5.8,9.7,5.9,9.4,5.9c-2.1,0-4.1,0-6.2,0c-0.5,0-1,0-1.4-0.2c-1-0.2-1.5-1-1.5-1.9
							c0-0.9,0.6-1.7,1.5-1.9c0.4-0.1,0.9-0.2,1.4-0.2c3.4,0,6.8,0,10.1,0c0.6,0,1.2,0,1.8,0.2c1.3,0.4,1.8,1.6,1.3,2.8
							c-0.5,1.1-1.2,2-1.9,2.9c-2.5,3.1-5,6.2-7.4,9.4C6.9,17.3,6.8,17.6,6.4,18"/>
						<path id="Fill-9" fill="#2D93E2" d="M21.6,14.8c0,0.6,0.2,1.5,0.8,2.3c1.2,1.6,3.7,1.6,5,0c1.1-1.4,1.1-3.8,0-5.2
							c-0.6-0.7-1.3-1.1-2.2-1.2C23,10.6,21.5,12.1,21.6,14.8 M28.2,7.9c0.5-0.6,0.9-1.1,1.7-1.3c1.5-0.3,2.9,0.7,2.9,2.2
							c0,3.7,0,7.5,0,11.2c0,1-0.6,1.8-1.6,2.1c-1,0.3-2,0.1-2.6-0.7c-0.3-0.4-0.5-0.5-0.9-0.1C26,22.7,24.1,23,22,22.3
							c-3.4-1.1-4.8-3.7-5.1-6.9c-0.4-3.4,0.8-6.4,3.8-8.1C23.3,5.8,25.9,5.9,28.2,7.9"/>
						<path id="Fill-11" fill="#2D93E2" d="M45.7,14.7c0,1,0.2,1.9,0.8,2.6c1.2,1.6,3.7,1.6,4.9,0c1.1-1.4,1.1-3.8,0-5.3
							c-0.6-0.7-1.3-1.1-2.3-1.2C47.1,10.9,45.7,12.4,45.7,14.7 M40.9,15.2c-0.1-4.8,3-8.4,7.6-8.6c4.8-0.1,8.4,3.1,8.5,7.8
							c0.1,4.7-2.8,8.1-7.3,8.6C44.8,23.4,40.8,19.9,40.9,15.2"/>
						<path id="Fill-13" fill="#2D93E2" d="M39.5,11.3c0,2.9,0,5.9,0,8.8c0,1.7-1.5,2.8-3.2,2.4c-1-0.2-1.7-1.3-1.7-2.4
							c0-5,0-10,0-15.1c0-0.9,0-1.8,0-2.7C34.7,1,35.6,0,37,0c1.5,0,2.5,0.9,2.5,2.4C39.5,5.4,39.5,8.4,39.5,11.3"/>
					</g>
				</g>
			</g>
		</g>
	</g>
</g>
</svg>
