<?xml version="1.0" encoding="utf-8"?>
<!-- Generator: Adobe Illustrator 21.1.0, SVG Export Plug-In . SVG Version: 6.00 Build 0)  -->
<svg version="1.0" id="Layer_1" xmlns="http://www.w3.org/2000/svg" xmlns:xlink="http://www.w3.org/1999/xlink" x="0px" y="0px"
	 viewBox="0 0 100 100" enable-background="new 0 0 100 100" xml:space="preserve">
<title>copylink</title>
<desc>Created with Sketch.</desc>
<g id="Page-1">
	<g id="Share" transform="translate(-389.000000, -1095.000000)">
		<g id="copylink" transform="translate(389.000000, 1095.000000)">
			<circle id="Oval-2-Copy-6" fill="#8C9DAA" cx="50" cy="50" r="50"/>
			<g id="link-symbol" transform="translate(25.000000, 25.000000)">
				<path id="Shape" fill="#FFFFFF" stroke="#8C9DAA" d="M46,22.6L36.7,32c-5.2,5.2-13.6,5.2-18.7,0c-0.8-0.8-1.5-1.7-2-2.7l4.4-4.4
					c0.2-0.2,0.5-0.3,0.7-0.5c0.3,1,0.8,2,1.6,2.8c2.6,2.6,6.8,2.6,9.4,0l9.4-9.4c2.6-2.6,2.6-6.8,0-9.4C38.8,6,34.6,6,32,8.6
					l-3.3,3.3c-2.7-1.1-5.6-1.3-8.4-0.9l7.1-7.1c5.2-5.2,13.6-5.2,18.7,0C51.2,9,51.2,17.4,46,22.6z M21.3,38l-3.3,3.3
					c-2.6,2.6-6.8,2.6-9.4,0C6,38.8,6,34.6,8.6,32l9.4-9.4c2.6-2.6,6.8-2.6,9.4,0c0.8,0.8,1.3,1.8,1.6,2.8c0.2-0.1,0.5-0.3,0.7-0.5
					l4.4-4.3c-0.6-0.9-1.2-1.9-2-2.7c-5.2-5.2-13.6-5.2-18.7,0l-9.4,9.4c-5.2,5.2-5.2,13.6,0,18.7c5.2,5.2,13.6,5.2,18.7,0l7.1-7.1
					C26.9,39.3,24,39.1,21.3,38z"/>
			</g>
		</g>
	</g>
</g>
</svg>
